<svg t="1694614993054" class="icon" viewBox="0 0 1024 1024" version="1.1"
    xmlns="http://www.w3.org/2000/svg" p-id="16845" fill="currentColor">
    <path
        d="M912 208H427.872l-50.368-94.176A63.936 63.936 0 0 0 321.056 80H112c-35.296 0-64 28.704-64 64v736c0 35.296 28.704 64 64 64h800c35.296 0 64-28.704 64-64V272c0-35.296-28.704-64-64-64z m-800-64h209.056l68.448 128H912v97.984c-0.416 0-0.8-0.128-1.216-0.128H113.248c-0.416 0-0.8 0.128-1.248 0.128V144z m0 736v-96l1.248-350.144L912 435.072V784h0.064v96H112z"
        p-id="16846"></path>
</svg>