<svg t="1694614839850" class="icon" viewBox="0 0 1024 1024" version="1.1"
    xmlns="http://www.w3.org/2000/svg" p-id="13857" fill="currentColor">
    <path
        d="M893.049089 77.468753H130.950911c-29.856808 0-54.150459 24.293652-54.150459 54.150459v786.138959c0 7.748681 3.034449 15.009684 8.543418 20.464467 5.418658 5.34641 12.58935 8.290547 20.193533 8.290547 1.842344 0 3.70275-0.180622 5.50897-0.523804l0.559928-0.108373 356.349037-88.306069c37.641614-9.320092 77.559064-8.994973 115.038118 0.921172L911.418341 945.537827l1.174043 0.270932c1.932655 0.397368 3.901434 0.614115 5.870213 0.614115 15.840545 0 28.736952-12.896407 28.736951-28.755014V131.637274c0-29.87487-24.293652-54.168522-54.150459-54.168521zM902.387244 896.787963l-307.906232-81.586933c-44.740056-11.8488-92.370063-12.246168-137.290742-1.101794L121.612756 897.239518V131.637274c0-5.147725 4.190429-9.356217 9.356217-9.356216h762.080116c5.147725 0 9.356217 4.190429 9.356217 9.356216V896.787963z"
        p-id="13858"></path>
    <path
        d="M307.707548 426.195544c58.069956 0 105.338719-47.268763 105.338719-105.338719 0-58.069956-47.250701-105.338719-105.338719-105.338719-58.069956 0-105.338719 47.268763-105.338719 105.338719 0 58.088018 47.250701 105.338719 105.338719 105.338719z m0-167.165611c34.101423 0 61.844954 27.743531 61.844954 61.844955 0 34.101423-27.743531 61.844954-61.844954 61.844954-34.101423 0-61.844954-27.743531-61.844955-61.844954 0-34.101423 27.743531-61.844954 61.844955-61.844955zM790.817067 299.128005H512.225777c-12.011359 0-21.746882 9.735523-21.746882 21.746883s9.735523 21.746882 21.746882 21.746882h281.643801c12.011359 0 18.676309-9.735523 18.676309-21.746882 0.018062-12.011359-9.735523-21.746882-21.72882-21.746883zM791.539555 490.370522H223.898965c-11.595929 0-21.024395 9.753585-21.024395 21.746882 0 12.011359 9.410403 21.746882 21.024395 21.746883h566.881978c11.595929 0 21.764945-9.735523 21.764944-21.746883 0.018062-11.993297-9.410403-21.746882-21.006332-21.746882zM791.539555 681.613039H223.898965c-11.595929 0-21.024395 9.753585-21.024395 21.746882 0 12.011359 9.410403 21.746882 21.024395 21.746882H794.62819c11.595929 0 17.917697-9.735523 17.917697-21.746882 0.018062-11.993297-9.410403-21.746882-21.006332-21.746882z"
        p-id="13859"></path>
</svg>