<svg t="1694615090107" class="icon" viewBox="0 0 1024 1024" version="1.1"
    xmlns="http://www.w3.org/2000/svg" p-id="20041" fill="currentColor">
    <path
        d="M887.232 69.504H130.56a62.976 62.976 0 0 0-62.912 62.912V889.92c0 34.624 28.224 62.784 62.912 62.784h756.672c34.688 0 62.912-28.16 62.912-62.784V132.416a62.976 62.976 0 0 0-62.912-62.912zM122.88 255.168h772.032v519.68H122.88v-519.68z m7.68-130.368h756.672a7.68 7.68 0 0 1 7.68 7.616v67.456H122.88v-67.456a7.68 7.68 0 0 1 7.68-7.616z m756.672 772.672H130.56a7.68 7.68 0 0 1-7.68-7.552v-59.84h772.032v59.904a7.68 7.68 0 0 1-7.68 7.488z"
        p-id="20042"></path>
    <path
        d="M673.28 487.168l-221.248-127.68a27.712 27.712 0 0 0-41.408 23.936v255.488a27.648 27.648 0 0 0 27.584 27.648h0.064a27.072 27.072 0 0 0 13.888-3.776l221.12-127.68a27.584 27.584 0 0 0 0.192-47.808l-0.192-0.128zM465.856 591.04V431.232l138.304 79.872-138.304 79.936z"
        p-id="20043"></path>
</svg>